REM GENRE "Folk/Ethno"
REM DATE 2009
REM DISCID 25047404
REM COMMENT "ExactAudioCopy v0.99pb4"
REM ACCURATERIPID 00034c4c-000d1555-25047404
PERFORMER "Ёж ёж #тест"
TITLE "Тропы (Сингл)"
FILE "Pelageya_-_Tropy_(Singl)_(2009_NL+0802)_by.Oleg39.wv" WAVE
  TRACK 01 AUDIO
    TITLE "Ой, да не вечер"
    PERFORMER "Альфа/Бета"
    INDEX 01 00:00:00
  TRACK 02 AUDIO
    TITLE "Босанова"
    PERFORMER "Альфа/Бета"
    INDEX 00 05:15:04
    INDEX 01 05:17:04
  TRACK 03 AUDIO
    TITLE "Голубушка"
    PERFORMER "Альфа/Бета"
    INDEX 00 09:59:69
    INDEX 01 10:01:69
  TRACK 04 AUDIO
    TITLE "Мамка"
    PERFORMER "Альфа/Бета"
    INDEX 00 13:39:72
    INDEX 01 13:41:72
